<svg width="434" height="142" viewBox="0 0 434 142" fill="none" xmlns="http://www.w3.org/2000/svg">
<mask id="mask0_1011_846" style="mask-type:alpha" maskUnits="userSpaceOnUse" x="0" y="6" width="112" height="113">
<path d="M55.5099 6.39796C50.9259 6.41926 46.5489 6.81016 42.6999 7.49196C31.3499 9.49696 29.2899 13.692 29.2899 21.432V31.652H56.0999V35.058H19.2299C11.4379 35.058 4.60988 39.742 2.47988 48.648C0.0178815 58.858 -0.0911187 65.238 2.47988 75.898C4.38588 83.836 8.93788 89.488 16.7299 89.488H25.9489V77.238C25.9489 68.388 33.6059 60.578 42.6989 60.578H69.4789C76.9339 60.578 82.8889 54.44 82.8889 46.958V21.428C82.8889 14.162 76.7589 8.70796 69.4789 7.48796C64.8729 6.72126 60.0939 6.37296 55.5089 6.39396L55.5099 6.39796ZM41.0099 14.617C43.7799 14.617 46.0409 16.916 46.0409 19.742C46.0409 22.558 43.7789 24.836 41.0099 24.836C38.2309 24.836 35.9789 22.559 35.9789 19.742C35.9789 16.916 38.2309 14.617 41.0099 14.617Z" fill="url(#paint0_linear_1011_846)"/>
<path d="M86.23 35.05V46.96C86.23 56.191 78.404 63.96 69.48 63.96H42.7C35.364 63.96 29.29 70.238 29.29 77.58V103.11C29.29 110.376 35.609 114.65 42.7 116.73C51.187 119.226 59.33 119.677 69.48 116.73C76.23 114.776 82.89 110.842 82.89 103.11V92.89H56.11V89.484H96.3C104.092 89.484 107 84.049 109.71 75.894C112.509 67.495 112.39 59.4141 109.71 48.6441C107.784 40.8871 104.106 35.0541 96.3 35.0541H86.24L86.23 35.05ZM71.17 99.7101C73.949 99.7101 76.201 101.987 76.201 104.804C76.201 107.63 73.949 109.929 71.17 109.929C68.4 109.929 66.139 107.63 66.139 104.804C66.139 101.988 68.401 99.7101 71.17 99.7101Z" fill="url(#paint1_linear_1011_846)"/>
</mask>
<g mask="url(#mask0_1011_846)">
<path d="M112 6H1V119H112V6Z" fill="black"/>
<path d="M112 43.6667H1V119H112V43.6667Z" fill="#DD0000"/>
<path d="M112 81.3333H1V119H112V81.3333Z" fill="#FFCE00"/>
<rect x="1" y="6" width="111" height="113" fill="url(#paint2_linear_1011_846)"/>
</g>
<path opacity="0.4438" d="M92.3681 134.107C92.3681 135.955 88.5822 137.727 81.8433 139.033C75.1043 140.34 65.9643 141.074 56.434 141.074C46.9036 141.074 37.7636 140.34 31.0246 139.033C24.2857 137.727 20.4998 135.955 20.4998 134.107C20.4998 132.259 24.2857 130.487 31.0246 129.18C37.7636 127.873 46.9036 127.139 56.434 127.139C65.9643 127.139 75.1043 127.873 81.8433 129.18C88.5822 130.487 92.3681 132.259 92.3681 134.107Z" fill="url(#paint3_radial_1011_846)"/>
<path d="M168.28 34.24C182.56 34 189.04 47.44 189.16 62.68C189.16 76.12 182.44 88.72 168.04 89.2C162.16 89.2 157.12 87.4 152.2 84.4V115.48L143.56 112.36L143.68 43.36C143.56 43.36 150.4 34.36 168.16 34.12L168.28 34.24ZM166.12 82.96C177.64 82.24 179.08 70.96 179.08 62.08C179.08 53.44 177.64 40.48 166.72 40C159.28 39.52 153.28 43 152.08 44.2V78.4C154.96 80.2 160.72 83.32 166.12 82.96ZM242.8 83.2C240.04 85 237.28 86.56 233.8 87.64C226.24 89.8 216.4 89.92 210.16 84.64C204.4 79.72 200.92 71.44 200.92 62.56C201.04 48.76 206.68 34.48 222.04 34.48C236.68 34.48 242.08 44.56 242.32 60.76H210.16C209.2 74.44 216.16 83.68 226 83.32C232 83.2 236.32 81.16 240.76 79L242.8 83.2ZM233.44 55.6L233.56 55.72C233.56 48.04 230.2 39.88 222.4 39.88C214 39.88 211 48.04 210.4 55.6H233.44ZM257.631 88V37L266.271 34.12V88H257.631ZM256.191 17.2V17.08C256.191 13.96 258.711 11.44 261.951 11.44C265.071 11.44 267.591 13.96 267.591 17.2C267.591 20.32 265.071 22.84 261.831 22.84C258.711 22.84 256.191 20.32 256.191 17.2ZM295.51 89.44C289.39 89.44 283.27 87.04 278.71 83.56L281.83 78.52C285.43 81.28 290.71 83.08 295.39 83.2C301.15 83.2 307.99 80.56 307.75 73.96C307.63 68.8 302.95 67.24 298.99 65.68C297.43 65.08 295.75 64.36 294.07 63.88C290.83 62.68 287.47 61.48 284.71 59.32C281.83 57.28 279.67 54.28 279.67 49.36C279.67 39.28 288.67 33.76 298.03 33.76C303.43 33.76 308.47 35.56 313.27 38.2L310.03 43.36C306.07 41.08 302.35 40 298.51 39.88C293.47 39.88 287.95 42.52 287.83 48.16C287.83 51.16 289.63 52.84 292.39 54.04C295.03 55.24 298.63 56.68 301.99 58C305.23 59.32 308.59 60.52 311.35 62.68C314.23 64.96 316.39 68.08 316.39 72.88C316.27 84.16 305.59 89.44 295.51 89.44ZM324.547 60.76C324.547 46.6 333.547 34.24 348.547 34.12C363.667 34.24 372.547 46.6 372.667 60.76C372.667 75.28 364.747 88.96 348.427 89.08C332.227 88.96 324.547 75.28 324.547 60.76ZM334.027 60.76H334.147C334.147 70.84 337.387 83.56 348.667 83.68C360.907 83.32 363.067 70.84 363.067 60.76C363.067 51.28 359.707 40.72 348.427 40.12C336.427 40.84 334.027 51.28 334.027 60.76ZM427.061 88H418.301V52.24C418.301 44.2 413.021 39.76 405.341 39.88C400.661 40 396.221 42.04 393.461 43.96V88H384.701V42.88C389.141 39.64 393.101 37.12 398.621 35.68C402.941 34.48 408.821 33.28 415.061 34.72C421.421 36.16 427.061 40.72 427.061 47.8V88Z" fill="#646464"/>
<defs>
<linearGradient id="paint0_linear_1011_846" x1="0.589882" y1="6.39671" x2="84.2199" y2="77.5523" gradientUnits="userSpaceOnUse">
<stop stop-color="#5A9FD4"/>
<stop offset="1" stop-color="#306998"/>
</linearGradient>
<linearGradient id="paint1_linear_1011_846" x1="70.5375" y1="103.978" x2="48.3147" y2="72.8854" gradientUnits="userSpaceOnUse">
<stop stop-color="#FFD43B"/>
<stop offset="1" stop-color="#FFE873"/>
</linearGradient>
<linearGradient id="paint2_linear_1011_846" x1="0.999998" y1="119" x2="112" y2="6" gradientUnits="userSpaceOnUse">
<stop stop-opacity="0.67"/>
<stop offset="1" stop-color="white" stop-opacity="0.12"/>
</linearGradient>
<radialGradient id="paint3_radial_1011_846" cx="0" cy="0" r="1" gradientUnits="userSpaceOnUse" gradientTransform="translate(56.4817 134.079) rotate(-90) scale(6.96773 30.6343)">
<stop stop-color="#B8B8B8" stop-opacity="0.498"/>
<stop offset="1" stop-color="#7F7F7F" stop-opacity="0"/>
</radialGradient>
</defs>
</svg>
